# xmcd
#
# Track frame offsets:
#	150
#	14205
#	29514
#	41178
#	57243
#	69339
#	83217
#	93450
#	103386
#	118695
#	129171
#	139998
#	156198
#	170400
#	182982
#	199560
#	215247
#	230799
#	243624
#	258123
#
# Disc length: 3624 seconds
#
# Revision: 1
# Processed by: cddbd v1.5.2PL0 Copyright (c) Steve Scherf et al.
# Submitted via: audiograbber 1.80
#
DISCID=310e2614
DTITLE=Various Artist - Soul Jealous disc 1
DYEAR=1900
DGENRE=
TTITLE0=Bobby Harris - Reaching Out For Someone
TTITLE1=The Winstons - The Wheels Of Fortune
TTITLE2=Dallas Frazier - Especially For You
TTITLE3=Willie Hightower - Don't Blame Me
TTITLE4=Bobby Harris - Mr. Succes
TTITLE5=Lee Mitchel - You And You Alone
TTITLE6=The Wallace Brothers - I Stayed Away Too Long
TTITLE7=Big John Hamilton - Before The Next Teardrops Falls
TTITLE8=Arthur Adams - Everything I Ever Wanted In A Girl
TTITLE9=Sam and Dave - Blame Me ,But Don't Blame My Heart
TTITLE10=Johnny Nash - I've Got To Offer Darling
TTITLE11=Art Garfunkel - Since I Don't Have You
TTITLE12=Johnny Braff - It Burns Inside
TTITLE13=Curtis Mayfield and The Imperials - I'm So Proud
TTITLE14=Stevie Wonder and Paul McCartny - Ebony Eyes
TTITLE15=Dionne Warwick - I've Never Loved That Way Before
TTITLE16=Kokomo - A Little Bit Further Away
TTITLE17=Anne Cole - Have Fun
TTITLE18=Bob and Earl - Baby It's over
TTITLE19=King Fighter Dudu - Surinam Me A Go Give Furu Furu
EXTD=
EXTT0=
EXTT1=
EXTT2=
EXTT3=
EXTT4=
EXTT5=
EXTT6=
EXTT7=
EXTT8=
EXTT9=
EXTT10=
EXTT11=
EXTT12=
EXTT13=
EXTT14=
EXTT15=
EXTT16=
EXTT17=
EXTT18=
EXTT19=
PLAYORDER=
